<svg id="Capa_1" data-name="Capa 1" xmlns="http://www.w3.org/2000/svg" viewBox="0 0 28.23 25.98"><defs><style>.cls-1{fill:#c1c3c9;}</style></defs><title>ADJUTAR</title><g id="XA889O"><path class="cls-1" d="M21.59,0a6.59,6.59,0,0,1,6.54,5.54,6.27,6.27,0,0,1-1.62,5.51c-1.59,1.73-3.3,3.34-5,5l-7.3,7.28a1.09,1.09,0,0,1-.88.41.92.92,0,0,1-.8-.57.9.9,0,0,1,.13-1,2.52,2.52,0,0,1,.27-.3L24.8,10.06A4.7,4.7,0,0,0,20.92,2a4.87,4.87,0,0,0-2.75,1.43L7.56,14,2.84,18.75a3.07,3.07,0,0,0-.19,4.19A3,3,0,0,0,5.2,24a3.2,3.2,0,0,0,2.21-1q5-5,10.05-10.06A1.51,1.51,0,0,0,17.82,11a1.47,1.47,0,0,0-2.24-.4l-.29.28L8.54,17.62A1,1,0,0,1,7.47,18,1,1,0,0,1,7,16.44l.18-.19C9.46,14,11.75,11.69,14,9.4a3.42,3.42,0,0,1,5.89,1.81,3.35,3.35,0,0,1-1,3c-3.41,3.42-6.82,6.85-10.25,10.25a5,5,0,0,1-7.4-6.8c.14-.16.29-.31.43-.46Q9.21,9.66,16.73,2.11A6.89,6.89,0,0,1,20.84,0C21.1,0,21.36,0,21.59,0Z"/></g></svg>