<svg id="Capa_1" data-name="Capa 1" xmlns="http://www.w3.org/2000/svg" viewBox="0 0 22.12 22.13"><defs><style>.cls-1{fill:#fff;}</style></defs><title>EDITAR</title><g id="QSrgT2"><path class="cls-1" d="M0,22.13c0-.19,0-.39,0-.58,0-1.27,0-2.53,0-3.8a.57.57,0,0,1,.17-.42L13.43,4.07c.15-.15.23-.12.36,0l4.27,4.27c.16.16.15.24,0,.39Q11.49,15.29,5,21.85c-.1.09-.18.19-.27.28Z"/><path class="cls-1" d="M22.12,4.43a2.13,2.13,0,0,1-.57.82L19.7,7.1c-.14.14-.22.13-.36,0q-2.13-2.14-4.29-4.28c-.14-.15-.13-.23,0-.36.66-.66,1.32-1.33,2-2a1.28,1.28,0,0,1,2,0L21.57,3a2,2,0,0,1,.55.81Z"/></g></svg>