<svg id="Capa_1" data-name="Capa 1" xmlns="http://www.w3.org/2000/svg" viewBox="0 0 20.84 20.83"><defs><style>.cls-1{fill:#1e6aac;}</style></defs><title>FORO</title><g id="U1Tx3m"><path class="cls-1" d="M11.26,20.83H0V9.57c.06-.38.1-.78.18-1.16A10.43,10.43,0,0,1,11.31,0a10.42,10.42,0,0,1,9.34,12.23,10.2,10.2,0,0,1-7.32,8.17A10.36,10.36,0,0,1,11.26,20.83Zm-.85-13H6.06a1.64,1.64,0,0,0-.38,0,.62.62,0,0,0-.43.71c.06.35.32.52.78.52h8.75a1.27,1.27,0,0,0,.34,0,.61.61,0,0,0,0-1.19,1.47,1.47,0,0,0-.36,0Zm-2,3.9H6a1.27,1.27,0,0,0-.34,0,.61.61,0,0,0-.45.72c.06.33.32.51.74.51h4.93a1,1,0,0,0,.3,0,.62.62,0,0,0,.45-.7.66.66,0,0,0-.72-.52Z"/></g></svg>