<svg id="Capa_1" data-name="Capa 1" xmlns="http://www.w3.org/2000/svg" viewBox="0 0 19 26.25"><defs><style>.cls-1{fill:#fff;}</style></defs><title>HOJA DE CA</title><g id="qkGep5"><path class="cls-1" d="M18.46,26.25H.54A.93.93,0,0,1,0,25.32Q0,15,0,4.78A1.07,1.07,0,0,1,.34,4C1.55,2.76,2.76,1.56,4,.34A1.08,1.08,0,0,1,4.78,0H18.07c.64,0,.92.29.92.94q0,12.2,0,24.38A.93.93,0,0,1,18.46,26.25Zm-9-8h5.38a1.8,1.8,0,0,0,.46,0,.73.73,0,0,0,0-1.4,1.73,1.73,0,0,0-.38-.05H4.05a1.37,1.37,0,0,0-.4.05.73.73,0,0,0-.5.84.79.79,0,0,0,.89.61ZM5.91,14.4H7.47a3.16,3.16,0,0,0,.69-.05.72.72,0,0,0,.51-.85.76.76,0,0,0-.86-.6H4a1.34,1.34,0,0,0-.35,0,.72.72,0,0,0-.52.85.77.77,0,0,0,.85.59Zm7.16,7.68c.67,0,1.33,0,2,0a.74.74,0,1,0,0-1.48q-2,0-4,0a.74.74,0,0,0-.74.52.75.75,0,0,0,.79,1C11.77,22.09,12.42,22.08,13.07,22.08Z"/></g></svg>