<svg id="Capa_1" data-name="Capa 1" xmlns="http://www.w3.org/2000/svg" viewBox="0 0 17.55 27.63"><defs><style>.cls-1{fill:#1e6aac;}</style></defs><title>IDEAS DE NEGOCIOS</title><path class="cls-1" d="M8.27,27.63a2.35,2.35,0,0,1-1.27-1c-.18-.31-.14-.4.2-.4,1,0,2.11,0,3.16,0,.34,0,.38.09.2.4a2.36,2.36,0,0,1-1.26,1Z"/><path class="cls-1" d="M8.74,21H5.65c-.93,0-.93,0-.94-.92a7,7,0,0,0-2-4.85,10.42,10.42,0,0,1-1.47-1.84A8.78,8.78,0,1,1,17.49,7.71a8.57,8.57,0,0,1-2.4,7.17A7.42,7.42,0,0,0,13,18.39a8.61,8.61,0,0,0-.19,2c0,.59,0,.59-.58.59Z"/><path class="cls-1" d="M8.8,22.19h2.86c.52,0,.52,0,.53.54s0,.88,0,1.32c0,.66-.27.94-.94.94-1.47,0-2.94,0-4.4,0-.21,0-.42,0-.63,0a.78.78,0,0,1-.83-.86c0-.52,0-1,0-1.55,0-.31.13-.4.41-.4Z"/></svg>