<svg id="Capa_1" data-name="Capa 1" xmlns="http://www.w3.org/2000/svg" viewBox="0 0 30.04 30.04" width="50" height="50"><defs><style>.cls-1{fill:#1e6aac;}</style></defs><title>INTERNO PROYECTO</title><circle class="cls-1" cx="92.5" cy="89.02" r="64.5"/><g id="HoOt5z"><path class="cls-1" d="M4.37,30a5.69,5.69,0,0,1-2.06-.79,4.81,4.81,0,0,1-2.28-4c0-1.35,0-2.71,0-4.07A5,5,0,0,1,4.37,16.3a28.59,28.59,0,0,1,3.07-.05,10.1,10.1,0,0,1,2.63.17,5,5,0,0,1,3.74,4.64c0,1.4,0,2.8,0,4.19A5,5,0,0,1,9.58,30a.53.53,0,0,0-.17,0Zm2.4-2.54H8.61a3.21,3.21,0,0,0,.81-.1,2.5,2.5,0,0,0,1.85-2.54c0-1.12,0-2.25,0-3.37a3.66,3.66,0,0,0-.09-.81,2.48,2.48,0,0,0-2.52-1.87c-1.17,0-2.33,0-3.49,0a2.47,2.47,0,0,0-2.58,2.41c0,1.3,0,2.6,0,3.89a2.4,2.4,0,0,0,2.13,2.34C5.45,27.55,6.18,27.46,6.77,27.5Z"/><path class="cls-1" d="M20.67,30a5.24,5.24,0,0,1-2.32-.93,4.87,4.87,0,0,1-2.08-3.86c-.06-1.39,0-2.79,0-4.18a5,5,0,0,1,4.31-4.77,17,17,0,0,1,2-.05q1.17,0,2.34,0A5,5,0,0,1,30,20.49a.45.45,0,0,0,0,.11v5.1c0,.06,0,.11,0,.17a5,5,0,0,1-2.36,3.46,5.84,5.84,0,0,1-1.93.71Zm6.84-6.85V21.41a2.88,2.88,0,0,0-.1-.78,2.5,2.5,0,0,0-2.54-1.82h-3.4a2.81,2.81,0,0,0-.81.1,2.48,2.48,0,0,0-1.85,2.54c0,1.15,0,2.3,0,3.46a2.48,2.48,0,0,0,2.53,2.58q1.82,0,3.63,0a2.46,2.46,0,0,0,2.54-2.6Z"/><path class="cls-1" d="M30,9.46a5.32,5.32,0,0,1-1,2.38,4.93,4.93,0,0,1-3.89,2c-1.31,0-2.63,0-3.95,0a5,5,0,0,1-4.93-4.93q0-2,0-4a5,5,0,0,1,4.3-4.8,17.29,17.29,0,0,1,1.9,0H25.1A5,5,0,0,1,30,4.14a1.55,1.55,0,0,1,.05.23ZM27.51,7.05v-2a2.46,2.46,0,0,0-2.45-2.51q-1.9,0-3.81,0a2.39,2.39,0,0,0-2.39,2.21,29.64,29.64,0,0,0,0,4.42,2.4,2.4,0,0,0,2,2,31.47,31.47,0,0,0,4.45,0,2.39,2.39,0,0,0,2.12-2C27.57,8.44,27.47,7.67,27.51,7.05Z"/><path class="cls-1" d="M6.92,0C7.8.05,8.69,0,9.58.07a5,5,0,0,1,4.18,4.25c.15,1.46,0,2.94.06,4.42a5.2,5.2,0,0,1-.16,1.3,5.06,5.06,0,0,1-4.13,3.72,7.3,7.3,0,0,1-.94.06H5.14A5,5,0,0,1,0,9.34C0,9.22,0,9.09,0,9,0,7.6,0,6.23,0,4.86A5,5,0,0,1,4.25.07C5.14,0,6,.05,6.92,0Zm.15,2.57h-2A2.44,2.44,0,0,0,2.58,4.94c0,1.31,0,2.62,0,3.92A2.4,2.4,0,0,0,4.65,11.2a31.27,31.27,0,0,0,4.54,0,2.41,2.41,0,0,0,2-2,33,33,0,0,0,0-4.45,2.38,2.38,0,0,0-2-2.1A19.75,19.75,0,0,0,7.07,2.57Z"/></g></svg>
