<svg id="Capa_1" data-name="Capa 1" xmlns="http://www.w3.org/2000/svg" viewBox="0 0 27.64 34.38"><defs><style>.cls-1{fill:#1e6aac;}</style></defs><title>NOTIFICACION</title><g id="Kg27SV"><path class="cls-1" d="M13.81,27.7c-3.71,0-7.43-.09-11.14,0C.23,27.8-.56,25.54.39,23.78a3.4,3.4,0,0,1,1-1.13c.31-.23.62-.48.94-.7a4.06,4.06,0,0,0,1.78-3.52c0-2.07.07-4.15,0-6.22C3.94,8.09,6.34,5.45,9.5,4.07a9.68,9.68,0,0,1,1.17-.44.87.87,0,0,0,.72-.85,3.27,3.27,0,0,0,0-.44A2.19,2.19,0,0,1,13.93,0a2.2,2.2,0,0,1,2.31,2.4c0,.12,0,.24,0,.36a.86.86,0,0,0,.66.85,9.9,9.9,0,0,1,5,3.32,7.09,7.09,0,0,1,1.57,4.41c0,2.1,0,4.2,0,6.3a12,12,0,0,0,.12,1.69,3.8,3.8,0,0,0,1.55,2.51c.43.34.9.63,1.31,1a3.13,3.13,0,0,1,1.06,3,2.1,2.1,0,0,1-2.21,1.79Z"/><path class="cls-1" d="M13.87,34.38a4.91,4.91,0,0,1-4.82-3.93c-.09-.64-.07-.69.56-.69h8.51c.53,0,.53,0,.48.55a4.77,4.77,0,0,1-4.11,4Z"/></g></svg>