<svg id="Capa_1" data-name="Capa 1" xmlns="http://www.w3.org/2000/svg" viewBox="0 0 13.2 19.74"><defs><style>.cls-1{fill:#1e6aac;}</style></defs><title>PERSONAS</title><g id="XyMfYy"><path class="cls-1" d="M7.14,0A5.08,5.08,0,0,1,8.29.28,4.83,4.83,0,0,1,11.5,4.34,4.94,4.94,0,1,1,5.57.09c.16,0,.32-.06.49-.09ZM6.61,7.38A2.43,2.43,0,0,0,9,4.93,2.41,2.41,0,0,0,6.59,2.49a2.45,2.45,0,1,0,0,4.89Z"/><path class="cls-1" d="M0,18.15A6.68,6.68,0,0,1,3.7,12.2a6,6,0,0,1,2.72-.71,6.39,6.39,0,0,1,4.08,1.29,6.53,6.53,0,0,1,2.65,4.63,8.6,8.6,0,0,1,0,1A1.26,1.26,0,0,1,12,19.74a1.24,1.24,0,0,1-1.29-1.29,5.69,5.69,0,0,0-.17-1.54A4.14,4.14,0,0,0,7.06,14a4.2,4.2,0,0,0-4.51,3.51c-.06.38,0,.76-.06,1.13a1.23,1.23,0,0,1-1.37,1.07A1.24,1.24,0,0,1,0,18.48Z"/></g></svg>