<svg id="Capa_1" data-name="Capa 1" xmlns="http://www.w3.org/2000/svg" viewBox="0 0 129 129" width="150" height="150"><defs><style>.cls-1{fill:#1e6aac;}.cls-2{fill:#fff;}</style></defs><title>PROYECTO</title><circle class="cls-1" cx="64.5" cy="64.5" r="64.5"/>
<g id="ZKCtdT"><path class="cls-2" d="M62.68,87.89H41.4A5.83,5.83,0,0,1,35.51,83a5.16,5.16,0,0,1-.07-1q0-15.58,0-31.19A5.8,5.8,0,0,1,41.31,45h8.87c.82,0,.81,0,.82-.84a9.6,9.6,0,0,1,.22-2.72,5.83,5.83,0,0,1,5.61-4.22h11.8a5.8,5.8,0,0,1,5.8,5.8c0,.45,0,.9,0,1.34s.17.65.66.65c3,0,6,0,8.94,0a5.82,5.82,0,0,1,5.89,4.86,5,5,0,0,1,.08,1V82a5.81,5.81,0,0,1-5.86,5.87Q73.4,87.91,62.68,87.89Zm0-42.89h6.07c1.79,0,1.79,0,1.7-1.78a2,2,0,0,0-2-2H57.22A2,2,0,0,0,55,43.39c0,.32,0,.65,0,1,0,.51.17.65.66.65C58,45,60.33,45,62.68,45Z"/></g>
</svg>
