<svg id="Capa_1" data-name="Capa 1" xmlns="http://www.w3.org/2000/svg" viewBox="0 0 26 16.87"><defs><style>.cls-1{fill:#1e6aac;}</style></defs><title>REPORTES</title><g id="Da6o69"><path class="cls-1" d="M26,16.3a1,1,0,0,1-1,.57c-4.72,0-9.43,0-14.14,0-3.26,0-6.52,0-9.78,0a1,1,0,0,1-1-.57v-.5a1,1,0,0,1,1-.57H25a1,1,0,0,1,1,.57Z"/><path class="cls-1" d="M19.28,7.17q0-3.07,0-6.14c0-.72.3-1,1-1h2.89a1,1,0,0,1,.72.2.93.93,0,0,1,.31.8c0,.47,0,.94,0,1.42V13.33c0,.44,0,.44-.43.44H19.71c-.42,0-.43,0-.43-.44Z"/><path class="cls-1" d="M13.45,8.43V3.53c0-.71.3-1,1-1h3a.84.84,0,0,1,.94.92v10c0,.24-.09.3-.31.3H13.76c-.24,0-.32-.08-.32-.32C13.45,11.78,13.45,10.1,13.45,8.43Z"/><path class="cls-1" d="M12.55,9.92c0,1.18,0,2.35,0,3.53,0,.24-.08.33-.32.32H7.92c-.22,0-.31-.06-.31-.3V6.41a.83.83,0,0,1,1-.94h3.08a.82.82,0,0,1,.9.9C12.56,7.55,12.55,8.74,12.55,9.92Z"/><path class="cls-1" d="M4.25,13.77H2.12c-.32,0-.34,0-.34-.32,0-1.36,0-2.71,0-4.06,0-.67.28-1,1-1,1,0,2,0,3.07,0,.63,0,.91.34.91,1,0,1.35,0,2.7,0,4.06,0,.34,0,.35-.35.35Z"/></g></svg>